<svg width="289" height="71" viewBox="0 0 289 71" fill="none" xmlns="http://www.w3.org/2000/svg">
<path fill-rule="evenodd" clip-rule="evenodd" d="M48.3124 30.9913L70.5719 70.5833H8.87137L16.2648 57.9127L49.5058 57.9209L41.081 43.7109L48.3124 30.9913ZM25.5906 40.2033L48.2215 1.32996L79.0323 54.9319H64.2374L47.9568 25.6952L40.0496 40.2074L25.5906 40.2033ZM44.8943 54.9809L0 54.7604L30.8502 1.16663L38.2002 14.0128L21.1965 42.2613H37.6628L44.8943 54.9809Z" fill="#0565FF"/>
<path d="M111.688 44.936C111.688 46.728 111.448 48.28 110.968 49.592C110.488 50.904 109.816 52.056 108.952 53.048C108.088 54.04 107.08 54.904 105.928 55.64C104.776 56.376 103.528 57.064 102.184 57.704L98.9682 52.376C100.184 51.736 101.112 51.096 101.752 50.456C102.424 49.848 102.904 49.224 103.192 48.584C103.512 47.976 103.688 47.384 103.72 46.808C103.784 46.2 103.816 45.608 103.816 45.032V14.504H111.688V44.936ZM130.041 22.904H137.625V35.432C137.625 37.352 137.753 38.952 138.009 40.232C138.265 41.512 138.569 42.536 138.921 43.304C139.305 44.232 139.753 44.952 140.265 45.464L134.169 47.384C133.881 47.096 133.593 46.728 133.305 46.28C133.049 45.928 132.793 45.48 132.537 44.936C132.281 44.36 132.073 43.704 131.913 42.968C131.081 44.472 129.929 45.576 128.457 46.28C127.017 46.952 125.449 47.288 123.753 47.288C122.505 47.288 121.433 47.096 120.537 46.712C119.673 46.296 118.953 45.736 118.377 45.032C117.833 44.296 117.433 43.416 117.177 42.392C116.953 41.368 116.841 40.216 116.841 38.936V22.904H124.473V37.928C124.473 39.048 124.601 39.96 124.857 40.664C125.145 41.336 125.657 41.672 126.393 41.672C127.289 41.672 128.121 41.08 128.889 39.896C129.657 38.68 130.041 37.016 130.041 34.904V22.904ZM157.671 47V32.024C157.671 30.904 157.527 30.008 157.239 29.336C156.983 28.632 156.487 28.28 155.751 28.28C154.855 28.28 154.023 28.872 153.255 30.056C152.487 31.208 152.103 32.84 152.103 34.952V47H144.519V34.52C144.519 32.6 144.375 31.016 144.087 29.768C143.831 28.488 143.527 27.448 143.175 26.648C142.791 25.752 142.359 25.032 141.879 24.488L147.975 22.568C148.263 22.888 148.551 23.256 148.839 23.672C149.095 24.024 149.335 24.488 149.559 25.064C149.815 25.608 150.023 26.232 150.183 26.936C151.015 25.432 152.151 24.328 153.591 23.624C155.063 22.92 156.663 22.568 158.391 22.568C160.887 22.568 162.663 23.336 163.719 24.872C164.775 26.376 165.303 28.392 165.303 30.92V47H157.671ZM176.374 47.192C174.55 47.192 173.078 46.728 171.958 45.8C170.838 44.84 170.278 43.496 170.278 41.768V22.904H177.862V39.608C177.862 40.344 177.974 40.84 178.198 41.096C178.422 41.352 178.758 41.48 179.206 41.48C179.462 41.48 179.718 41.464 179.974 41.432C180.23 41.368 180.39 41.32 180.454 41.288L181.126 46.04C181.094 46.072 180.95 46.152 180.694 46.28C180.438 46.376 180.102 46.504 179.686 46.664C179.27 46.792 178.774 46.904 178.198 47C177.622 47.128 177.014 47.192 176.374 47.192ZM174.166 11.336C175.51 11.336 176.534 11.736 177.238 12.536C177.942 13.336 178.294 14.344 178.294 15.56C178.294 16.808 177.926 17.848 177.19 18.68C176.486 19.512 175.414 19.928 173.974 19.928C172.63 19.928 171.59 19.528 170.854 18.728C170.15 17.896 169.798 16.92 169.798 15.8C169.798 14.52 170.166 13.464 170.902 12.632C171.638 11.768 172.726 11.336 174.166 11.336ZM204.366 35.432C204.366 37.352 204.494 38.952 204.75 40.232C205.006 41.512 205.31 42.536 205.662 43.304C206.046 44.232 206.494 44.952 207.006 45.464L200.91 47.384C200.558 47.064 200.238 46.664 199.95 46.184C199.694 45.768 199.438 45.272 199.182 44.696C198.958 44.088 198.766 43.384 198.606 42.584C198.062 44.088 197.262 45.256 196.206 46.088C195.15 46.888 193.758 47.288 192.03 47.288C190.462 47.288 189.086 47 187.902 46.424C186.75 45.848 185.79 45.048 185.022 44.024C184.254 42.968 183.678 41.704 183.294 40.232C182.942 38.76 182.766 37.128 182.766 35.336C182.766 33.512 183.054 31.816 183.63 30.248C184.238 28.68 185.07 27.336 186.126 26.216C187.182 25.064 188.446 24.168 189.918 23.528C191.39 22.888 193.022 22.568 194.814 22.568C195.806 22.568 196.862 22.648 197.982 22.808C199.102 22.936 200.126 23.096 201.054 23.288C201.982 23.448 202.75 23.608 203.358 23.768C203.998 23.896 204.334 23.96 204.366 23.96V35.432ZM193.278 41.72C193.758 41.72 194.206 41.512 194.622 41.096C195.07 40.68 195.454 40.12 195.774 39.416C196.094 38.712 196.334 37.912 196.494 37.016C196.686 36.088 196.782 35.112 196.782 34.088V28.52C196.558 28.424 196.238 28.344 195.822 28.28C195.438 28.184 195.102 28.136 194.814 28.136C194.046 28.136 193.406 28.312 192.894 28.664C192.382 28.984 191.966 29.448 191.646 30.056C191.358 30.632 191.15 31.336 191.022 32.168C190.894 33 190.83 33.896 190.83 34.856C190.83 35.752 190.846 36.616 190.878 37.448C190.91 38.248 191.006 38.968 191.166 39.608C191.358 40.248 191.614 40.76 191.934 41.144C192.254 41.528 192.702 41.72 193.278 41.72ZM223.25 47V32.024C223.25 30.904 223.106 30.008 222.818 29.336C222.562 28.632 222.066 28.28 221.33 28.28C220.434 28.28 219.602 28.872 218.834 30.056C218.066 31.208 217.682 32.84 217.682 34.952V47H210.098V34.52C210.098 32.6 209.954 31.016 209.666 29.768C209.41 28.488 209.106 27.448 208.754 26.648C208.37 25.752 207.938 25.032 207.458 24.488L213.554 22.568C213.842 22.888 214.13 23.256 214.418 23.672C214.674 24.024 214.914 24.488 215.138 25.064C215.394 25.608 215.602 26.232 215.762 26.936C216.594 25.432 217.73 24.328 219.17 23.624C220.642 22.92 222.242 22.568 223.97 22.568C226.466 22.568 228.242 23.336 229.298 24.872C230.354 26.376 230.882 28.392 230.882 30.92V47H223.25ZM252.8 47.384L252.512 47.048C252.32 46.856 252.096 46.552 251.84 46.136C251.584 45.72 251.328 45.224 251.072 44.648C250.816 44.04 250.624 43.352 250.496 42.584C249.952 44.088 249.152 45.256 248.096 46.088C247.04 46.888 245.648 47.288 243.92 47.288C242.352 47.288 240.976 47 239.792 46.424C238.64 45.848 237.68 45.048 236.912 44.024C236.144 42.968 235.568 41.704 235.184 40.232C234.832 38.76 234.656 37.128 234.656 35.336C234.656 33.512 234.944 31.816 235.52 30.248C236.128 28.68 236.96 27.336 238.016 26.216C239.072 25.064 240.336 24.168 241.808 23.528C243.28 22.888 244.912 22.568 246.704 22.568C246.992 22.568 247.296 22.584 247.616 22.616C247.968 22.648 248.32 22.68 248.672 22.712V12.248L256.256 13.496V35.432C256.256 37.32 256.384 38.904 256.64 40.184C256.928 41.464 257.232 42.504 257.552 43.304C257.872 44.072 258.176 44.616 258.464 44.936L258.896 45.464L252.8 47.384ZM245.168 41.72C245.648 41.72 246.096 41.512 246.512 41.096C246.96 40.68 247.344 40.12 247.664 39.416C247.984 38.712 248.224 37.912 248.384 37.016C248.576 36.088 248.672 35.112 248.672 34.088V28.52C248.448 28.424 248.128 28.344 247.712 28.28C247.328 28.184 246.992 28.136 246.704 28.136C245.936 28.136 245.296 28.312 244.784 28.664C244.272 28.984 243.856 29.448 243.536 30.056C243.248 30.632 243.04 31.336 242.912 32.168C242.784 33 242.72 33.896 242.72 34.856C242.72 35.752 242.736 36.616 242.768 37.448C242.8 38.248 242.896 38.968 243.056 39.608C243.248 40.248 243.504 40.76 243.824 41.144C244.144 41.528 244.592 41.72 245.168 41.72ZM272.142 22.424C275.95 22.424 278.718 23.512 280.446 25.688C282.206 27.864 283.086 30.872 283.086 34.712C283.086 36.536 282.846 38.232 282.366 39.8C281.918 41.336 281.214 42.68 280.254 43.832C279.326 44.952 278.142 45.848 276.702 46.52C275.294 47.16 273.646 47.48 271.758 47.48C269.838 47.48 268.174 47.208 266.766 46.664C265.39 46.088 264.254 45.272 263.358 44.216C262.494 43.16 261.838 41.88 261.39 40.376C260.974 38.84 260.766 37.128 260.766 35.24C260.766 33.416 260.99 31.72 261.438 30.152C261.918 28.584 262.622 27.24 263.55 26.12C264.51 24.968 265.694 24.072 267.102 23.432C268.542 22.76 270.222 22.424 272.142 22.424ZM271.71 28.136C271.134 28.136 270.654 28.312 270.27 28.664C269.886 28.984 269.582 29.448 269.358 30.056C269.166 30.632 269.022 31.32 268.926 32.12C268.862 32.92 268.83 33.784 268.83 34.712C268.83 35.672 268.878 36.584 268.974 37.448C269.07 38.312 269.23 39.064 269.454 39.704C269.71 40.344 270.062 40.856 270.51 41.24C270.958 41.592 271.518 41.768 272.19 41.768C272.766 41.768 273.246 41.592 273.63 41.24C274.014 40.888 274.302 40.424 274.494 39.848C274.718 39.24 274.862 38.536 274.926 37.736C275.022 36.936 275.07 36.088 275.07 35.192C275.07 34.2 275.022 33.288 274.926 32.456C274.83 31.592 274.654 30.84 274.398 30.2C274.174 29.56 273.838 29.064 273.39 28.712C272.942 28.328 272.382 28.136 271.71 28.136Z" fill="#0565FF"/>
</svg>
