<svg width="135" height="135" viewBox="0 0 135 135" fill="none" xmlns="http://www.w3.org/2000/svg">
<path d="M67.5 135C104.779 135 135 104.779 135 67.5C135 30.2208 104.779 0 67.5 0C30.2208 0 0 30.2208 0 67.5C0 104.779 30.2208 135 67.5 135Z" fill="#3F51F1"/>
<path fill-rule="evenodd" clip-rule="evenodd" d="M76.8909 58.2356L100.655 99.1406H34.7836L42.6769 86.0498L78.165 86.0583L69.1706 71.377L76.8909 58.2356ZM52.6331 67.7531L76.7939 27.5906L109.688 82.9702H93.8925L76.5112 52.7639L68.0695 67.7573L52.6331 67.7531ZM73.2417 83.0208L25.3125 82.793L58.2483 27.4219L66.0952 40.6941L47.9419 69.8794H65.5214L73.2417 83.0208Z" fill="white"/>
</svg>
