<svg width="190" height="152" viewBox="0 0 190 152" fill="none" xmlns="http://www.w3.org/2000/svg">
<path fill-rule="evenodd" clip-rule="evenodd" d="M105.296 29.8247L127.556 69.4167H65.8553L73.2487 56.7461L106.49 56.7543L98.0649 42.5443L105.296 29.8247ZM82.5745 39.0367L105.205 0.163333L136.016 53.7653H121.221L104.941 24.5286L97.0335 39.0408L82.5745 39.0367ZM101.878 53.8143L56.9839 53.5938L87.8341 0L95.1841 12.8462L78.1803 41.0947H94.6467L101.878 53.8143Z" fill="white"/>
<path d="M13.656 125.353C13.656 127.145 13.416 128.697 12.936 130.009C12.456 131.321 11.784 132.473 10.92 133.465C10.056 134.457 9.048 135.321 7.896 136.057C6.744 136.793 5.496 137.481 4.152 138.121L0.936 132.793C2.152 132.153 3.08 131.513 3.72 130.873C4.392 130.265 4.872 129.641 5.16 129.001C5.48 128.393 5.656 127.801 5.688 127.225C5.752 126.617 5.784 126.025 5.784 125.449V94.9205H13.656V125.353ZM32.0085 103.321H39.5925V115.849C39.5925 117.769 39.7205 119.369 39.9765 120.649C40.2325 121.929 40.5365 122.953 40.8885 123.721C41.2725 124.649 41.7205 125.369 42.2325 125.881L36.1365 127.801C35.8485 127.513 35.5605 127.145 35.2725 126.697C35.0165 126.345 34.7605 125.897 34.5045 125.353C34.2485 124.777 34.0405 124.121 33.8805 123.385C33.0485 124.889 31.8965 125.993 30.4245 126.697C28.9845 127.369 27.4165 127.705 25.7205 127.705C24.4725 127.705 23.4005 127.513 22.5045 127.129C21.6405 126.713 20.9205 126.153 20.3445 125.449C19.8005 124.713 19.4005 123.833 19.1445 122.809C18.9205 121.785 18.8085 120.633 18.8085 119.353V103.321H26.4405V118.345C26.4405 119.465 26.5685 120.377 26.8245 121.081C27.1125 121.753 27.6245 122.089 28.3605 122.089C29.2565 122.089 30.0885 121.497 30.8565 120.313C31.6245 119.097 32.0085 117.433 32.0085 115.321V103.321ZM59.6393 127.417V112.441C59.6393 111.321 59.4953 110.425 59.2073 109.753C58.9513 109.049 58.4553 108.697 57.7193 108.697C56.8233 108.697 55.9913 109.289 55.2233 110.473C54.4553 111.625 54.0713 113.257 54.0713 115.369V127.417H46.4873V114.937C46.4873 113.017 46.3433 111.433 46.0553 110.185C45.7993 108.905 45.4953 107.865 45.1433 107.065C44.7593 106.169 44.3273 105.449 43.8473 104.905L49.9433 102.985C50.2313 103.305 50.5193 103.673 50.8073 104.089C51.0633 104.441 51.3033 104.905 51.5273 105.481C51.7833 106.025 51.9913 106.649 52.1513 107.353C52.9833 105.849 54.1193 104.745 55.5593 104.041C57.0313 103.337 58.6313 102.985 60.3593 102.985C62.8553 102.985 64.6313 103.753 65.6873 105.289C66.7433 106.793 67.2712 108.809 67.2712 111.337V127.417H59.6393ZM78.342 127.609C76.518 127.609 75.046 127.145 73.926 126.217C72.806 125.257 72.246 123.913 72.246 122.185V103.321H79.83V120.025C79.83 120.761 79.942 121.257 80.166 121.513C80.39 121.769 80.726 121.897 81.174 121.897C81.43 121.897 81.686 121.881 81.942 121.849C82.198 121.785 82.358 121.737 82.422 121.705L83.094 126.457C83.062 126.489 82.918 126.569 82.662 126.697C82.406 126.793 82.07 126.921 81.654 127.081C81.238 127.209 80.742 127.321 80.166 127.417C79.59 127.545 78.982 127.609 78.342 127.609ZM76.134 91.7525C77.478 91.7525 78.502 92.1525 79.206 92.9525C79.91 93.7525 80.262 94.7605 80.262 95.9765C80.262 97.2245 79.894 98.2645 79.158 99.0965C78.454 99.9285 77.382 100.345 75.942 100.345C74.598 100.345 73.558 99.9445 72.822 99.1445C72.118 98.3125 71.766 97.3365 71.766 96.2165C71.766 94.9365 72.134 93.8805 72.87 93.0485C73.606 92.1845 74.694 91.7525 76.134 91.7525ZM106.334 115.849C106.334 117.769 106.462 119.369 106.718 120.649C106.974 121.929 107.278 122.953 107.63 123.721C108.014 124.649 108.462 125.369 108.974 125.881L102.878 127.801C102.526 127.481 102.206 127.081 101.918 126.601C101.662 126.185 101.406 125.689 101.15 125.113C100.926 124.505 100.734 123.801 100.574 123.001C100.03 124.505 99.2295 125.673 98.1735 126.505C97.1175 127.305 95.7255 127.705 93.9975 127.705C92.4295 127.705 91.0535 127.417 89.8695 126.841C88.7175 126.265 87.7575 125.465 86.9895 124.441C86.2215 123.385 85.6455 122.121 85.2615 120.649C84.9095 119.177 84.7335 117.545 84.7335 115.753C84.7335 113.929 85.0215 112.233 85.5975 110.665C86.2055 109.097 87.0375 107.753 88.0935 106.633C89.1495 105.481 90.4135 104.585 91.8855 103.945C93.3575 103.305 94.9895 102.985 96.7815 102.985C97.7735 102.985 98.8295 103.065 99.9495 103.225C101.07 103.353 102.094 103.513 103.022 103.705C103.95 103.865 104.718 104.025 105.326 104.185C105.966 104.313 106.302 104.377 106.334 104.377V115.849ZM95.2455 122.137C95.7255 122.137 96.1735 121.929 96.5895 121.513C97.0375 121.097 97.4215 120.537 97.7415 119.833C98.0615 119.129 98.3015 118.329 98.4615 117.433C98.6535 116.505 98.7495 115.529 98.7495 114.505V108.937C98.5255 108.841 98.2055 108.761 97.7895 108.697C97.4055 108.601 97.0695 108.553 96.7815 108.553C96.0135 108.553 95.3735 108.729 94.8615 109.081C94.3495 109.401 93.9335 109.865 93.6135 110.473C93.3255 111.049 93.1175 111.753 92.9895 112.585C92.8615 113.417 92.7975 114.313 92.7975 115.273C92.7975 116.169 92.8135 117.033 92.8455 117.865C92.8775 118.665 92.9735 119.385 93.1335 120.025C93.3255 120.665 93.5815 121.177 93.9015 121.561C94.2215 121.945 94.6695 122.137 95.2455 122.137ZM125.217 127.417V112.441C125.217 111.321 125.073 110.425 124.785 109.753C124.529 109.049 124.033 108.697 123.297 108.697C122.401 108.697 121.569 109.289 120.801 110.473C120.033 111.625 119.649 113.257 119.649 115.369V127.417H112.065V114.937C112.065 113.017 111.921 111.433 111.633 110.185C111.377 108.905 111.073 107.865 110.721 107.065C110.337 106.169 109.905 105.449 109.425 104.905L115.521 102.985C115.809 103.305 116.097 103.673 116.385 104.089C116.641 104.441 116.881 104.905 117.105 105.481C117.361 106.025 117.569 106.649 117.729 107.353C118.561 105.849 119.697 104.745 121.137 104.041C122.609 103.337 124.209 102.985 125.937 102.985C128.433 102.985 130.209 103.753 131.265 105.289C132.321 106.793 132.849 108.809 132.849 111.337V127.417H125.217ZM154.768 127.801L154.48 127.465C154.288 127.273 154.064 126.969 153.808 126.553C153.552 126.137 153.296 125.641 153.04 125.065C152.784 124.457 152.592 123.769 152.464 123.001C151.92 124.505 151.12 125.673 150.064 126.505C149.008 127.305 147.616 127.705 145.888 127.705C144.32 127.705 142.944 127.417 141.76 126.841C140.608 126.265 139.648 125.465 138.88 124.441C138.112 123.385 137.536 122.121 137.152 120.649C136.8 119.177 136.624 117.545 136.624 115.753C136.624 113.929 136.912 112.233 137.488 110.665C138.096 109.097 138.928 107.753 139.984 106.633C141.04 105.481 142.304 104.585 143.776 103.945C145.248 103.305 146.88 102.985 148.672 102.985C148.96 102.985 149.264 103.001 149.584 103.033C149.936 103.065 150.288 103.097 150.64 103.129V92.6645L158.224 93.9125V115.849C158.224 117.737 158.352 119.321 158.608 120.601C158.896 121.881 159.2 122.921 159.52 123.721C159.84 124.489 160.144 125.033 160.432 125.353L160.864 125.881L154.768 127.801ZM147.136 122.137C147.616 122.137 148.064 121.929 148.48 121.513C148.928 121.097 149.312 120.537 149.632 119.833C149.952 119.129 150.192 118.329 150.352 117.433C150.544 116.505 150.64 115.529 150.64 114.505V108.937C150.416 108.841 150.096 108.761 149.68 108.697C149.296 108.601 148.96 108.553 148.672 108.553C147.904 108.553 147.264 108.729 146.752 109.081C146.24 109.401 145.824 109.865 145.504 110.473C145.216 111.049 145.008 111.753 144.88 112.585C144.752 113.417 144.688 114.313 144.688 115.273C144.688 116.169 144.704 117.033 144.736 117.865C144.768 118.665 144.864 119.385 145.024 120.025C145.216 120.665 145.472 121.177 145.792 121.561C146.112 121.945 146.56 122.137 147.136 122.137ZM174.109 102.841C177.918 102.841 180.686 103.929 182.414 106.105C184.174 108.281 185.054 111.289 185.054 115.129C185.054 116.953 184.814 118.649 184.334 120.217C183.886 121.753 183.182 123.097 182.222 124.249C181.294 125.369 180.11 126.265 178.67 126.937C177.262 127.577 175.614 127.897 173.726 127.897C171.806 127.897 170.142 127.625 168.734 127.081C167.358 126.505 166.222 125.689 165.326 124.633C164.462 123.577 163.806 122.297 163.358 120.793C162.942 119.257 162.734 117.545 162.734 115.657C162.734 113.833 162.958 112.137 163.406 110.569C163.886 109.001 164.59 107.657 165.518 106.537C166.478 105.385 167.662 104.489 169.07 103.849C170.51 103.177 172.19 102.841 174.109 102.841ZM173.678 108.553C173.102 108.553 172.622 108.729 172.238 109.081C171.854 109.401 171.55 109.865 171.326 110.473C171.134 111.049 170.99 111.737 170.894 112.537C170.83 113.337 170.798 114.201 170.798 115.129C170.798 116.089 170.846 117.001 170.942 117.865C171.038 118.729 171.198 119.481 171.422 120.121C171.678 120.761 172.03 121.273 172.478 121.657C172.926 122.009 173.486 122.185 174.158 122.185C174.734 122.185 175.214 122.009 175.598 121.657C175.982 121.305 176.27 120.841 176.462 120.265C176.686 119.657 176.83 118.953 176.894 118.153C176.99 117.353 177.038 116.505 177.038 115.609C177.038 114.617 176.99 113.705 176.894 112.873C176.798 112.009 176.622 111.257 176.366 110.617C176.142 109.977 175.806 109.481 175.358 109.129C174.91 108.745 174.35 108.553 173.678 108.553Z" fill="white"/>
</svg>
