<svg width="174" height="41" viewBox="0 0 174 41" fill="none" xmlns="http://www.w3.org/2000/svg">
<path fill-rule="evenodd" clip-rule="evenodd" d="M27.5085 17.3612L40.1827 40.4082H5.05125L9.261 33.0325L28.188 33.0372L23.391 24.7655L27.5085 17.3612ZM14.571 22.7236L27.4567 0.0950779L45 31.2973H36.576L27.306 14.2783L22.8038 22.726L14.571 22.7236ZM25.5623 31.3258L0 31.1975L17.5658 0L21.7507 7.47789L12.069 23.9216H21.4447L25.5623 31.3258Z" fill="#0565FF"/>
<path d="M65.66 29.71C65.66 30.83 65.51 31.8 65.21 32.62C64.91 33.44 64.49 34.16 63.95 34.78C63.41 35.4 62.78 35.94 62.06 36.4C61.34 36.86 60.56 37.29 59.72 37.69L57.71 34.36C58.47 33.96 59.05 33.56 59.45 33.16C59.87 32.78 60.17 32.39 60.35 31.99C60.55 31.61 60.66 31.24 60.68 30.88C60.72 30.5 60.74 30.13 60.74 29.77V10.69H65.66V29.71ZM77.1303 15.94H81.8703V23.77C81.8703 24.97 81.9503 25.97 82.1103 26.77C82.2703 27.57 82.4603 28.21 82.6803 28.69C82.9203 29.27 83.2003 29.72 83.5203 30.04L79.7103 31.24C79.5303 31.06 79.3503 30.83 79.1703 30.55C79.0103 30.33 78.8503 30.05 78.6903 29.71C78.5303 29.35 78.4003 28.94 78.3003 28.48C77.7803 29.42 77.0603 30.11 76.1403 30.55C75.2403 30.97 74.2603 31.18 73.2003 31.18C72.4203 31.18 71.7503 31.06 71.1903 30.82C70.6503 30.56 70.2003 30.21 69.8403 29.77C69.5003 29.31 69.2503 28.76 69.0903 28.12C68.9503 27.48 68.8803 26.76 68.8803 25.96V15.94H73.6503V25.33C73.6503 26.03 73.7303 26.6 73.8903 27.04C74.0703 27.46 74.3903 27.67 74.8503 27.67C75.4103 27.67 75.9303 27.3 76.4103 26.56C76.8903 25.8 77.1303 24.76 77.1303 23.44V15.94ZM94.3995 31V21.64C94.3995 20.94 94.3095 20.38 94.1295 19.96C93.9695 19.52 93.6595 19.3 93.1995 19.3C92.6395 19.3 92.1195 19.67 91.6395 20.41C91.1595 21.13 90.9195 22.15 90.9195 23.47V31H86.1795V23.2C86.1795 22 86.0895 21.01 85.9095 20.23C85.7495 19.43 85.5595 18.78 85.3395 18.28C85.0995 17.72 84.8295 17.27 84.5295 16.93L88.3395 15.73C88.5195 15.93 88.6995 16.16 88.8795 16.42C89.0395 16.64 89.1895 16.93 89.3295 17.29C89.4895 17.63 89.6195 18.02 89.7195 18.46C90.2395 17.52 90.9495 16.83 91.8495 16.39C92.7695 15.95 93.7695 15.73 94.8495 15.73C96.4095 15.73 97.5195 16.21 98.1795 17.17C98.8395 18.11 99.1695 19.37 99.1695 20.95V31H94.3995ZM106.089 31.12C104.949 31.12 104.029 30.83 103.329 30.25C102.629 29.65 102.279 28.81 102.279 27.73V15.94H107.019V26.38C107.019 26.84 107.089 27.15 107.229 27.31C107.369 27.47 107.579 27.55 107.859 27.55C108.019 27.55 108.179 27.54 108.339 27.52C108.499 27.48 108.599 27.45 108.639 27.43L109.059 30.4C109.039 30.42 108.949 30.47 108.789 30.55C108.629 30.61 108.419 30.69 108.159 30.79C107.899 30.87 107.589 30.94 107.229 31C106.869 31.08 106.489 31.12 106.089 31.12ZM104.709 8.71C105.549 8.71 106.189 8.96 106.629 9.46C107.069 9.96 107.289 10.59 107.289 11.35C107.289 12.13 107.059 12.78 106.599 13.3C106.159 13.82 105.489 14.08 104.589 14.08C103.749 14.08 103.099 13.83 102.639 13.33C102.199 12.81 101.979 12.2 101.979 11.5C101.979 10.7 102.209 10.04 102.669 9.52C103.129 8.98 103.809 8.71 104.709 8.71ZM123.583 23.77C123.583 24.97 123.663 25.97 123.823 26.77C123.983 27.57 124.173 28.21 124.393 28.69C124.633 29.27 124.913 29.72 125.233 30.04L121.423 31.24C121.203 31.04 121.003 30.79 120.823 30.49C120.663 30.23 120.503 29.92 120.343 29.56C120.203 29.18 120.083 28.74 119.983 28.24C119.643 29.18 119.143 29.91 118.483 30.43C117.823 30.93 116.953 31.18 115.873 31.18C114.893 31.18 114.033 31 113.293 30.64C112.573 30.28 111.973 29.78 111.493 29.14C111.013 28.48 110.653 27.69 110.413 26.77C110.193 25.85 110.083 24.83 110.083 23.71C110.083 22.57 110.263 21.51 110.623 20.53C111.003 19.55 111.523 18.71 112.183 18.01C112.843 17.29 113.633 16.73 114.553 16.33C115.473 15.93 116.493 15.73 117.613 15.73C118.233 15.73 118.893 15.78 119.593 15.88C120.293 15.96 120.933 16.06 121.513 16.18C122.093 16.28 122.573 16.38 122.953 16.48C123.353 16.56 123.563 16.6 123.583 16.6V23.77ZM116.653 27.7C116.953 27.7 117.233 27.57 117.493 27.31C117.773 27.05 118.013 26.7 118.213 26.26C118.413 25.82 118.563 25.32 118.663 24.76C118.783 24.18 118.843 23.57 118.843 22.93V19.45C118.703 19.39 118.503 19.34 118.243 19.3C118.003 19.24 117.793 19.21 117.613 19.21C117.133 19.21 116.733 19.32 116.413 19.54C116.093 19.74 115.833 20.03 115.633 20.41C115.453 20.77 115.323 21.21 115.243 21.73C115.163 22.25 115.123 22.81 115.123 23.41C115.123 23.97 115.133 24.51 115.153 25.03C115.173 25.53 115.233 25.98 115.333 26.38C115.453 26.78 115.613 27.1 115.813 27.34C116.013 27.58 116.293 27.7 116.653 27.7ZM135.386 31V21.64C135.386 20.94 135.296 20.38 135.116 19.96C134.956 19.52 134.646 19.3 134.186 19.3C133.626 19.3 133.106 19.67 132.626 20.41C132.146 21.13 131.906 22.15 131.906 23.47V31H127.166V23.2C127.166 22 127.076 21.01 126.896 20.23C126.736 19.43 126.546 18.78 126.326 18.28C126.086 17.72 125.816 17.27 125.516 16.93L129.326 15.73C129.506 15.93 129.686 16.16 129.866 16.42C130.026 16.64 130.176 16.93 130.316 17.29C130.476 17.63 130.606 18.02 130.706 18.46C131.226 17.52 131.936 16.83 132.836 16.39C133.756 15.95 134.756 15.73 135.836 15.73C137.396 15.73 138.506 16.21 139.166 17.17C139.826 18.11 140.156 19.37 140.156 20.95V31H135.386ZM153.855 31.24L153.675 31.03C153.555 30.91 153.415 30.72 153.255 30.46C153.095 30.2 152.935 29.89 152.775 29.53C152.615 29.15 152.495 28.72 152.415 28.24C152.075 29.18 151.575 29.91 150.915 30.43C150.255 30.93 149.385 31.18 148.305 31.18C147.325 31.18 146.465 31 145.725 30.64C145.005 30.28 144.405 29.78 143.925 29.14C143.445 28.48 143.085 27.69 142.845 26.77C142.625 25.85 142.515 24.83 142.515 23.71C142.515 22.57 142.695 21.51 143.055 20.53C143.435 19.55 143.955 18.71 144.615 18.01C145.275 17.29 146.065 16.73 146.985 16.33C147.905 15.93 148.925 15.73 150.045 15.73C150.225 15.73 150.415 15.74 150.615 15.76C150.835 15.78 151.055 15.8 151.275 15.82V9.28L156.015 10.06V23.77C156.015 24.95 156.095 25.94 156.255 26.74C156.435 27.54 156.625 28.19 156.825 28.69C157.025 29.17 157.215 29.51 157.395 29.71L157.665 30.04L153.855 31.24ZM149.085 27.7C149.385 27.7 149.665 27.57 149.925 27.31C150.205 27.05 150.445 26.7 150.645 26.26C150.845 25.82 150.995 25.32 151.095 24.76C151.215 24.18 151.275 23.57 151.275 22.93V19.45C151.135 19.39 150.935 19.34 150.675 19.3C150.435 19.24 150.225 19.21 150.045 19.21C149.565 19.21 149.165 19.32 148.845 19.54C148.525 19.74 148.265 20.03 148.065 20.41C147.885 20.77 147.755 21.21 147.675 21.73C147.595 22.25 147.555 22.81 147.555 23.41C147.555 23.97 147.565 24.51 147.585 25.03C147.605 25.53 147.665 25.98 147.765 26.38C147.885 26.78 148.045 27.1 148.245 27.34C148.445 27.58 148.725 27.7 149.085 27.7ZM165.943 15.64C168.323 15.64 170.053 16.32 171.133 17.68C172.233 19.04 172.783 20.92 172.783 23.32C172.783 24.46 172.633 25.52 172.333 26.5C172.053 27.46 171.613 28.3 171.013 29.02C170.433 29.72 169.693 30.28 168.793 30.7C167.913 31.1 166.883 31.3 165.703 31.3C164.503 31.3 163.463 31.13 162.583 30.79C161.723 30.43 161.013 29.92 160.453 29.26C159.913 28.6 159.503 27.8 159.223 26.86C158.963 25.9 158.833 24.83 158.833 23.65C158.833 22.51 158.973 21.45 159.253 20.47C159.553 19.49 159.993 18.65 160.573 17.95C161.173 17.23 161.913 16.67 162.793 16.27C163.693 15.85 164.743 15.64 165.943 15.64ZM165.673 19.21C165.313 19.21 165.013 19.32 164.773 19.54C164.533 19.74 164.343 20.03 164.203 20.41C164.083 20.77 163.993 21.2 163.933 21.7C163.893 22.2 163.873 22.74 163.873 23.32C163.873 23.92 163.903 24.49 163.963 25.03C164.023 25.57 164.123 26.04 164.263 26.44C164.423 26.84 164.643 27.16 164.923 27.4C165.203 27.62 165.553 27.73 165.973 27.73C166.333 27.73 166.633 27.62 166.873 27.4C167.113 27.18 167.293 26.89 167.413 26.53C167.553 26.15 167.643 25.71 167.683 25.21C167.743 24.71 167.773 24.18 167.773 23.62C167.773 23 167.743 22.43 167.683 21.91C167.623 21.37 167.513 20.9 167.353 20.5C167.213 20.1 167.003 19.79 166.723 19.57C166.443 19.33 166.093 19.21 165.673 19.21Z" fill="#0565FF"/>
</svg>
