<svg width="242" height="167" viewBox="0 0 242 167" fill="none" xmlns="http://www.w3.org/2000/svg">
<path fill-rule="evenodd" clip-rule="evenodd" d="M136.727 39.43L170.235 91.7731H77.3548L88.4845 75.0218L138.523 75.0326L125.841 56.2461L136.727 39.43ZM102.523 51.6089L136.59 0.215936L182.97 71.0809H160.699L136.191 32.4283L124.288 51.6143L102.523 51.6089ZM131.581 71.1457L64.0004 70.8542L110.44 0L121.505 16.9834L95.9082 54.3297H120.696L131.581 71.1457Z" fill="white"/>
<path d="M16.7189 150.247C16.7189 152.598 16.4034 154.635 15.7725 156.356C15.1416 158.078 14.2584 159.589 13.1227 160.891C11.9871 162.192 10.6622 163.326 9.14807 164.292C7.63391 165.258 5.99356 166.16 4.22704 167L0 160.009C1.59828 159.169 2.81803 158.33 3.65923 157.49C4.54249 156.692 5.17339 155.873 5.55193 155.034C5.97253 154.236 6.20386 153.459 6.24592 152.703C6.33004 151.905 6.3721 151.129 6.3721 150.373V110.317H16.7189V150.247Z" fill="white"/>
<path d="M40.841 121.338H50.8093V137.777C50.8093 140.296 50.9775 142.395 51.314 144.075C51.6505 145.754 52.05 147.098 52.5127 148.106C53.0174 149.323 53.6062 150.268 54.2792 150.94L46.2668 153.459C45.8882 153.081 45.5097 152.598 45.1311 152.01C44.7947 151.549 44.4582 150.961 44.1217 150.247C43.7852 149.491 43.5118 148.63 43.3015 147.665C42.208 149.638 40.6938 151.087 38.759 152.01C36.8663 152.892 34.8054 153.333 32.5762 153.333C30.9359 153.333 29.5268 153.081 28.3492 152.577C27.2135 152.031 26.2672 151.297 25.5101 150.373C24.7951 149.407 24.2693 148.252 23.9329 146.909C23.6384 145.565 23.4912 144.054 23.4912 142.374V121.338H33.5226V141.052C33.5226 142.521 33.6908 143.718 34.0273 144.642C34.4058 145.523 35.0788 145.964 36.0462 145.964C37.2238 145.964 38.3174 145.187 39.3268 143.634C40.3363 142.038 40.841 139.855 40.841 137.084V121.338Z" fill="white"/>
<path d="M77.1583 152.955V133.305C77.1583 131.835 76.969 130.66 76.5904 129.778C76.254 128.854 75.602 128.392 74.6347 128.392C73.457 128.392 72.3634 129.169 71.354 130.723C70.3445 132.234 69.8398 134.376 69.8398 137.147V152.955H59.8716V136.58C59.8716 134.061 59.6823 131.982 59.3037 130.345C58.9673 128.665 58.5677 127.301 58.105 126.251C57.6003 125.075 57.0325 124.131 56.4016 123.417L64.4141 120.898C64.7926 121.317 65.1711 121.8 65.5497 122.346C65.8862 122.808 66.2016 123.417 66.496 124.173C66.8325 124.886 67.1059 125.705 67.3162 126.629C68.4098 124.655 69.9029 123.207 71.7956 122.283C73.7304 121.359 75.8334 120.898 78.1046 120.898C81.3853 120.898 83.7196 121.905 85.1076 123.921C86.4956 125.894 87.1896 128.539 87.1896 131.856V152.955H77.1583Z" fill="white"/>
<path d="M101.741 153.207C99.3433 153.207 97.4085 152.598 95.9364 151.381C94.4643 150.121 93.7283 148.357 93.7283 146.09V121.338H103.697V143.256C103.697 144.222 103.844 144.872 104.138 145.208C104.433 145.544 104.874 145.712 105.463 145.712C105.8 145.712 106.136 145.691 106.473 145.649C106.809 145.565 107.019 145.502 107.103 145.46L107.987 151.695C107.945 151.737 107.755 151.842 107.419 152.01C107.082 152.136 106.641 152.304 106.094 152.514C105.547 152.682 104.895 152.829 104.138 152.955C103.381 153.123 102.582 153.207 101.741 153.207ZM98.8386 106.16C100.605 106.16 101.951 106.685 102.876 107.734C103.802 108.784 104.264 110.107 104.264 111.702C104.264 113.34 103.781 114.704 102.813 115.796C101.888 116.888 100.479 117.434 98.5862 117.434C96.8197 117.434 95.4528 116.909 94.4854 115.859C93.56 114.767 93.0974 113.487 93.0974 112.017C93.0974 110.338 93.5811 108.952 94.5485 107.86C95.5158 106.727 96.9459 106.16 98.8386 106.16Z" fill="white"/>
<path d="M138.532 137.777C138.532 140.296 138.7 142.395 139.037 144.075C139.373 145.754 139.773 147.098 140.236 148.106C140.74 149.323 141.329 150.268 142.002 150.94L133.99 153.459C133.527 153.039 133.106 152.514 132.728 151.884C132.391 151.339 132.055 150.688 131.718 149.932C131.424 149.134 131.172 148.211 130.961 147.161C130.246 149.134 129.195 150.667 127.807 151.758C126.419 152.808 124.589 153.333 122.318 153.333C120.257 153.333 118.448 152.955 116.892 152.199C115.378 151.444 114.116 150.394 113.107 149.05C112.097 147.665 111.34 146.006 110.836 144.075C110.373 142.143 110.142 140.002 110.142 137.651C110.142 135.257 110.52 133.032 111.277 130.975C112.076 128.917 113.17 127.154 114.558 125.684C115.946 124.173 117.607 122.997 119.542 122.157C121.477 121.317 123.622 120.898 125.977 120.898C127.281 120.898 128.669 121.002 130.141 121.212C131.613 121.38 132.959 121.59 134.179 121.842C135.399 122.052 136.408 122.262 137.207 122.472C138.048 122.64 138.49 122.724 138.532 122.724V137.777ZM123.958 146.027C124.589 146.027 125.178 145.754 125.725 145.208C126.314 144.663 126.818 143.928 127.239 143.004C127.66 142.08 127.975 141.031 128.185 139.855C128.438 138.637 128.564 137.357 128.564 136.013V128.707C128.269 128.581 127.849 128.476 127.302 128.392C126.797 128.266 126.356 128.203 125.977 128.203C124.968 128.203 124.127 128.434 123.454 128.896C122.781 129.316 122.234 129.925 121.813 130.723C121.435 131.478 121.161 132.402 120.993 133.494C120.825 134.586 120.741 135.761 120.741 137.021C120.741 138.196 120.762 139.33 120.804 140.422C120.846 141.471 120.972 142.416 121.182 143.256C121.435 144.096 121.771 144.768 122.192 145.271C122.612 145.775 123.201 146.027 123.958 146.027Z" fill="white"/>
<path d="M163.353 152.955V133.305C163.353 131.835 163.163 130.66 162.785 129.778C162.448 128.854 161.796 128.392 160.829 128.392C159.651 128.392 158.558 129.169 157.548 130.723C156.539 132.234 156.034 134.376 156.034 137.147V152.955H146.066V136.58C146.066 134.061 145.877 131.982 145.498 130.345C145.162 128.665 144.762 127.301 144.299 126.251C143.795 125.075 143.227 124.131 142.596 123.417L150.608 120.898C150.987 121.317 151.366 121.8 151.744 122.346C152.081 122.808 152.396 123.417 152.69 124.173C153.027 124.886 153.3 125.705 153.511 126.629C154.604 124.655 156.097 123.207 157.99 122.283C159.925 121.359 162.028 120.898 164.299 120.898C167.58 120.898 169.914 121.905 171.302 123.921C172.69 125.894 173.384 128.539 173.384 131.856V152.955H163.353Z" fill="white"/>
<path d="M202.194 153.459L201.815 153.018C201.563 152.766 201.268 152.367 200.932 151.821C200.595 151.276 200.259 150.625 199.922 149.869C199.586 149.071 199.333 148.169 199.165 147.161C198.45 149.134 197.399 150.667 196.011 151.758C194.623 152.808 192.793 153.333 190.522 153.333C188.461 153.333 186.652 152.955 185.096 152.199C183.582 151.444 182.32 150.394 181.311 149.05C180.301 147.665 179.544 146.006 179.039 144.075C178.577 142.143 178.345 140.002 178.345 137.651C178.345 135.257 178.724 133.032 179.481 130.975C180.28 128.917 181.374 127.154 182.762 125.684C184.15 124.173 185.811 122.997 187.746 122.157C189.681 121.317 191.826 120.898 194.181 120.898C194.56 120.898 194.959 120.919 195.38 120.961C195.842 121.002 196.305 121.044 196.768 121.086V107.356L206.736 108.994V137.777C206.736 140.254 206.904 142.332 207.241 144.012C207.619 145.691 208.019 147.056 208.439 148.106C208.86 149.113 209.26 149.827 209.638 150.247L210.206 150.94L202.194 153.459ZM192.162 146.027C192.793 146.027 193.382 145.754 193.929 145.208C194.518 144.663 195.022 143.928 195.443 143.004C195.864 142.08 196.179 141.031 196.389 139.855C196.642 138.637 196.768 137.357 196.768 136.013V128.707C196.473 128.581 196.053 128.476 195.506 128.392C195.001 128.266 194.56 128.203 194.181 128.203C193.172 128.203 192.33 128.434 191.657 128.896C190.985 129.316 190.438 129.925 190.017 130.723C189.639 131.478 189.365 132.402 189.197 133.494C189.029 134.586 188.945 135.761 188.945 137.021C188.945 138.196 188.966 139.33 189.008 140.422C189.05 141.471 189.176 142.416 189.386 143.256C189.639 144.096 189.975 144.768 190.396 145.271C190.816 145.775 191.405 146.027 192.162 146.027Z" fill="white"/>
<path d="M227.615 120.709C232.621 120.709 236.259 122.136 238.53 124.991C240.843 127.846 242 131.793 242 136.832C242 139.225 241.685 141.45 241.054 143.508C240.465 145.523 239.539 147.287 238.278 148.798C237.058 150.268 235.502 151.444 233.609 152.325C231.758 153.165 229.592 153.585 227.111 153.585C224.587 153.585 222.4 153.228 220.549 152.514C218.741 151.758 217.248 150.688 216.07 149.302C214.934 147.917 214.072 146.237 213.483 144.264C212.936 142.248 212.663 140.002 212.663 137.525C212.663 135.131 212.957 132.906 213.546 130.849C214.177 128.791 215.103 127.028 216.322 125.558C217.584 124.047 219.14 122.871 220.991 122.031C222.884 121.149 225.092 120.709 227.615 120.709ZM227.048 128.203C226.291 128.203 225.66 128.434 225.155 128.896C224.65 129.316 224.251 129.925 223.956 130.723C223.704 131.478 223.515 132.381 223.388 133.431C223.304 134.481 223.262 135.614 223.262 136.832C223.262 138.091 223.325 139.288 223.451 140.422C223.578 141.555 223.788 142.542 224.082 143.382C224.419 144.222 224.882 144.893 225.47 145.397C226.059 145.859 226.795 146.09 227.679 146.09C228.436 146.09 229.067 145.859 229.571 145.397C230.076 144.935 230.454 144.327 230.707 143.571C231.001 142.773 231.191 141.849 231.275 140.8C231.401 139.75 231.464 138.637 231.464 137.462C231.464 136.16 231.401 134.963 231.275 133.872C231.148 132.738 230.917 131.751 230.581 130.912C230.286 130.072 229.845 129.421 229.256 128.959C228.667 128.455 227.931 128.203 227.048 128.203Z" fill="white"/>
</svg>
