<svg width="24" height="22" viewBox="0 0 24 22" fill="none" xmlns="http://www.w3.org/2000/svg">
<g clip-path="url(#clip0_87_272)">
<path d="M18.5334 9.72021H5.46676C4.43583 9.72021 3.6001 10.5994 3.6001 11.6839V18.5566C3.6001 19.6411 4.43583 20.5202 5.46676 20.5202H18.5334C19.5644 20.5202 20.4001 19.6411 20.4001 18.5566V11.6839C20.4001 10.5994 19.5644 9.72021 18.5334 9.72021Z" stroke="#C8C8C8" stroke-width="1.5" stroke-linecap="round" stroke-linejoin="round"/>
<path d="M7.2002 9.72008V5.88008C7.2002 4.60704 7.70591 3.38614 8.60608 2.48597C9.50626 1.58579 10.7272 1.08008 12.0002 1.08008C13.2732 1.08008 14.4941 1.58579 15.3943 2.48597C16.2945 3.38614 16.8002 4.60704 16.8002 5.88008V9.72008" stroke="#C8C8C8" stroke-width="1.5" stroke-linecap="round" stroke-linejoin="round"/>
</g>
<defs>
<clipPath id="clip0_87_272">
<rect width="24" height="21.6" fill="white"/>
</clipPath>
</defs>
</svg>
